:SAMPLES-PER-SECOND 30
:FULLY-SPECIFIED
:DEGREES
321
root  53.6629 36.866 -4.0966 -174.235 13.1008 173.42
RightUpLeg  -33.9286 -19.3509 -18.4881
RightLeg  10.4384 -0.89325 0.663753
RightFoot  6.5256 -1.66445 10.8385
RightToes  0.00048216 0.542163 -0.142577
Spine  51.4267 -4.39521 4.27592
Spine1  14.0931 -2.69436 -0.277959
HEad  -13.533 -17.4078 4.23982
LeftShoulder1  9.09697 -19.5957 -33.2823
LeftArm  -19.5959 -43.4166 -26.4029
LeftForeArm  21.4343 -14.1856 -4.59105
LeftHand  -0.25398 0.0180481 5.50724
RightShoulder  4.44009 11.1491 24.1355
RightArm  -20.1546 41.9248 16.3777
RightForeArm  -3.42044 11.7063 7.13862
RightHand  -1.62621 5.34691 -17.8107
LeftUpLeg  -33.0641 -6.82396 -3.57574
LeftLeg  43.4339 0.926018 1.34104
LeftFoot  -12.8413 0.0896523 0.881766
LeftToes  1.06246e-005 4.65855e-005 -8.18505e-006
322
root  55.38 36.5247 -4.06255 -171.332 9.27477 173.587
RightUpLeg  -39.56 -23.2506 -14.8055
RightLeg  16.6519 0.869055 0.99632
RightFoot  13.2792 -2.23313 10.6858
RightToes  0.00048216 0.542163 -0.142577
Spine  53.8351 -5.4146 6.66965
Spine1  13.216 -2.1933 -0.593355
HEad  -16.2894 -18.8148 6.65122
LeftShoulder1  8.73091 -20.4577 -30.3134
LeftArm  -21.9993 -50.0455 -27.9848
LeftForeArm  23.3954 -10.89 -4.54173
LeftHand  -0.25398 0.0180481 5.50724
RightShoulder  3.94434 11.0134 20.8161
RightArm  -24.2002 43.225 14.1064
RightForeArm  -4.05529 8.94223 6.96012
RightHand  -1.89371 6.08605 -19.3887
LeftUpLeg  -37.7086 -2.37923 -2.50373
LeftLeg  46.8024 1.09439 1.69725
LeftFoot  -12.1101 0.0691656 -0.530937
LeftToes  1.06246e-005 4.65855e-005 -8.18505e-006
323
root  56.9475 36.2225 -4.07535 -167.971 7.13098 174.812
RightUpLeg  -47.194 -27.0549 -7.62395
RightLeg  23.3069 3.58701 1.36433
RightFoot  14.3424 -1.63002 7.51271
RightToes  0.00048216 0.542163 -0.142577
Spine  56.135 -6.46915 9.05714
Spine1  13.0358 -1.15493 -1.97137
HEad  -19.7268 -18.8782 8.73079
LeftShoulder1  7.97625 -21.1732 -26.083
LeftArm  -24.2486 -55.9935 -28.2532
LeftForeArm  23.3183 -8.56587 -4.07392
LeftHand  -0.25398 0.0180481 5.50724
RightShoulder  3.45586 11.4682 16.4239
RightArm  -28.0592 45.2758 11.1879
RightForeArm  -4.56376 5.33545 6.207
RightHand  -1.89213 5.75825 -19.8945
LeftUpLeg  -42.8093 5.49022 -2.61528
LeftLeg  49.8027 3.21234 4.52967
LeftFoot  -11.3364 0.067636 -1.10283
LeftToes  1.06246e-005 4.65855e-005 -8.18505e-006
324
root  58.395 36.0498 -4.1288 -164.224 5.74158 176.387
RightUpLeg  -54.168 -28.2634 -0.737962
RightLeg  28.4677 3.53179 1.83652
RightFoot  11.4209 -0.589128 3.30895
RightToes  0.00048216 0.542163 -0.142577
Spine  58.39 -7.0597 10.3855
Spine1  13.2276 -0.357433 -2.54712
HEad  -23.1033 -17.7843 9.83011
LeftShoulder1  7.11457 -21.7356 -21.732
LeftArm  -28.2236 -60.7809 -25.7126
LeftForeArm  22.1932 -7.16509 -3.27343
LeftHand  -0.25398 0.0180481 5.50724
RightShoulder  3.11371 12.8226 11.9981
RightArm  -34.0631 47.8231 5.81923
RightForeArm  -3.80846 0.56906 4.77051
RightHand  -1.67972 5.00977 -18.9505
LeftUpLeg  -48.28 15.0544 -5.09156
LeftLeg  50.9982 6.80691 9.34918
LeftFoot  -10.8169 0.0665883 -0.440393
LeftToes  1.06246e-005 4.65855e-005 -8.18505e-006
325
root  59.8007 35.9325 -4.25066 -159.982 4.14688 177.222
RightUpLeg  -60.8674 -29.0313 5.82
RightLeg  31.9216 3.25123 1.93656
RightFoot  8.72889 0.00857815 0.318473
RightToes  0.00048216 0.542163 -0.142577
Spine  60.5763 -7.06093 10.2868
Spine1  12.8856 -0.333624 -1.53219
HEad  -25.3176 -15.8949 9.47966
LeftShoulder1  6.41488 -21.6532 -18.8615
LeftArm  -34.4024 -64.9998 -20.08
LeftForeArm  21.02 -5.82698 -2.44611
LeftHand  -0.25398 0.0180481 5.50724
RightShoulder  2.86509 14.7696 8.23035
RightArm  -42.3586 49.8188 -1.75051
RightForeArm  -3.62808 -4.01048 2.86339
RightHand  -1.52421 4.68749 -17.7892
LeftUpLeg  -55.0089 23.9197 -10.806
LeftLeg  50.4133 10.8251 14.1167
LeftFoot  -10.6443 0.0548017 1.60921
LeftToes  1.06246e-005 4.65855e-005 -8.18505e-006
